<?xml version="1.0" encoding="UTF-8"?>
<svg version="1.1" xmlns="http://www.w3.org/2000/svg" width="86" height="86">
<path d="M0 0 C28.38 0 56.76 0 86 0 C86 28.38 86 56.76 86 86 C57.62 86 29.24 86 0 86 C0 57.62 0 29.24 0 0 Z " fill="#F8EAE7" transform="translate(0,0)"/>
<path d="M0 0 C0.99 0 1.98 0 3 0 C3.19335938 0.55429688 3.38671875 1.10859375 3.5859375 1.6796875 C3.97652344 2.76636719 3.97652344 2.76636719 4.375 3.875 C4.63023438 4.59429688 4.88546875 5.31359375 5.1484375 6.0546875 C5.93877783 8.18157994 5.93877783 8.18157994 8 10 C11.84044909 10.42671657 14.09550797 10.63558899 17.3125 8.375 C19.22966311 5.67677044 20.1324209 3.18112337 21 0 C21.99 0.33 22.98 0.66 24 1 C23.67 1.33 23.34 1.66 23 2 C22.95936168 3.66617115 22.957279 5.33388095 23 7 C25.475 7.495 25.475 7.495 28 8 C28.66 6.35 29.32 4.7 30 3 C31.32 3.66 32.64 4.32 34 5 C33.01 5.33 32.02 5.66 31 6 C31 7.98 31 9.96 31 12 C33.91634129 12.2502157 33.91634129 12.2502157 37 12 C37.66 11.01 38.32 10.02 39 9 C39.99 9.66 40.98 10.32 42 11 C42 11.66 42 12.32 42 13 C40.68 13.33 39.36 13.66 38 14 C38 15.65 38 17.3 38 19 C39.98 19.495 39.98 19.495 42 20 C42.99 18.515 42.99 18.515 44 17 C44.66 17 45.32 17 46 17 C46.495 18.98 46.495 18.98 47 21 C45.35 21.66 43.7 22.32 42 23 C42.495 25.475 42.495 25.475 43 28 C44.32 28 45.64 28 47 28 C47.33 27.34 47.66 26.68 48 26 C48.66 26 49.32 26 50 26 C50 27.32 50 28.64 50 30 C48.02 30.33 46.04 30.66 44 31 C44.495 33.97 44.495 33.97 45 37 C46.65 37.33 48.3 37.66 50 38 C50 37.34 50 36.68 50 36 C50.66 36 51.32 36 52 36 C52 37.98 52 39.96 52 42 C51.34 42 50.68 42 50 42 C50 41.34 50 40.68 50 40 C48.02 40.66 46.04 41.32 44 42 C44 43.32 44 44.64 44 46 C45.98 46.66 47.96 47.32 50 48 C50 48.99 50 49.98 50 51 C49.505 50.835 49.01 50.67 48.5 50.5 C44.34749899 49.6694998 39.85518413 49.01443343 36 51.0625 C34.41095875 54.14126742 34.64226903 56.60155579 35 60 C36.76015131 63.1850357 37.49890916 63.83296972 41 65 C39.25 68.875 39.25 68.875 37 70 C36.34 68.35 35.68 66.7 35 65 C33.68 65 32.36 65 31 65 C30.83318891 67.91652174 30.83318891 67.91652174 31 71 C31.99 71.99 31.99 71.99 33 73 C31.02 73.99 31.02 73.99 29 75 C28.34 73.35 27.68 71.7 27 70 C24.525 70.495 24.525 70.495 22 71 C22 72.65 22 74.3 22 76 C22.66 76 23.32 76 24 76 C24 76.66 24 77.32 24 78 C22.68 78 21.36 78 20 78 C19.34 76.02 18.68 74.04 18 72 C15.525 72.495 15.525 72.495 13 73 C13 75.31 13 77.62 13 80 C11.68 80 10.36 80 9 80 C9.33 77.69 9.66 75.38 10 73 C8.35 72.67 6.7 72.34 5 72 C4.34 73.98 3.68 75.96 3 78 C1.68 78 0.36 78 -1 78 C-1 77.34 -1 76.68 -1 76 C-0.34 76 0.32 76 1 76 C0.67 74.02 0.34 72.04 0 70 C-1.65 70 -3.3 70 -5 70 C-5.33 71.65 -5.66 73.3 -6 75 C-7.32 74.67 -8.64 74.34 -10 74 C-10 73.34 -10 72.68 -10 72 C-9.34 72 -8.68 72 -8 72 C-8 69.69 -8 67.38 -8 65 C-10.37374861 64.66574265 -10.37374861 64.66574265 -13 65 C-14.84315671 66.9004467 -14.84315671 66.9004467 -16 69 C-16.66 67.68 -17.32 66.36 -18 65 C-17.195625 64.54625 -16.39125 64.0925 -15.5625 63.625 C-12.91143428 62.25274335 -12.91143428 62.25274335 -12 60 C-11.49928128 55.40760498 -11.49928128 55.40760498 -13.19140625 51.3203125 C-15.55490278 49.59490899 -17.28663118 49.50086811 -20.1875 49.3125 C-21.08855469 49.24675781 -21.98960938 49.18101563 -22.91796875 49.11328125 C-23.60503906 49.07589844 -24.29210937 49.03851563 -25 49 C-25 49.66 -25 50.32 -25 51 C-25.66 51 -26.32 51 -27 51 C-27 49.68 -27 48.36 -27 47 C-24.525 46.505 -24.525 46.505 -22 46 C-22 44.02 -22 42.04 -22 40 C-25.465 40.495 -25.465 40.495 -29 41 C-29 39.35 -29 37.7 -29 36 C-28.34 36 -27.68 36 -27 36 C-27 36.66 -27 37.32 -27 38 C-25.02 37.34 -23.04 36.68 -21 36 C-21.33 34.35 -21.66 32.7 -22 31 C-23.65 30.67 -25.3 30.34 -27 30 C-27 28.68 -27 27.36 -27 26 C-26.34 26 -25.68 26 -25 26 C-25 26.66 -25 27.32 -25 28 C-23.02 27.67 -21.04 27.34 -19 27 C-19 25.35 -19 23.7 -19 22 C-20.65 21.67 -22.3 21.34 -24 21 C-23.34 19.35 -22.68 17.7 -22 16 C-21.608125 16.515625 -21.21625 17.03125 -20.8125 17.5625 C-20.214375 18.036875 -19.61625 18.51125 -19 19 C-16.34533951 18.76956136 -16.34533951 18.76956136 -14 18 C-14.27034634 15.56282742 -14.27034634 15.56282742 -15 13 C-15.99 12.34 -16.98 11.68 -18 11 C-16.68 10.01 -15.36 9.02 -14 8 C-13.67 9.32 -13.34 10.64 -13 12 C-11.35 12 -9.7 12 -8 12 C-7.4465236 9.92446352 -7 8.15634036 -7 6 C-7.99 6 -8.98 6 -10 6 C-10 5.34 -10 4.68 -10 4 C-8.68 3.67 -7.36 3.34 -6 3 C-5.34 4.65 -4.68 6.3 -4 8 C-2.35 7.67 -0.7 7.34 1 7 C1.15149298 3.37114676 1.15149298 3.37114676 0 0 Z " fill="#B20A0B" transform="translate(32,4)"/>
<path d="M0 0 C28.38 0 56.76 0 86 0 C86 11.88 86 23.76 86 36 C84.52675574 33.05351148 83.40533024 30.38330352 82.3125 27.3125 C77.99873366 16.52808416 69.78172381 8.30420268 59.1875 3.5625 C48.20186599 0.00377349 33.97745774 0.11479526 23.609375 5.328125 C13.05027557 12.09353601 5.65932713 21.14743299 2.47265625 33.37890625 C0.45689843 44.55719962 2.58369429 55.54877034 8.3125 65.375 C15.12408083 75.17050596 24.35042648 81.25744381 36 84 C50.29243825 85.17828452 59.81574313 81.90416513 71.625 74.3125 C78.77844818 67.34730046 82.36561691 59.52304944 85 50 C85.33 50 85.66 50 86 50 C86 61.88 86 73.76 86 86 C57.62 86 29.24 86 0 86 C0 57.62 0 29.24 0 0 Z " fill="#790404" transform="translate(0,0)"/>
<path d="M0 0 C5.32196238 2.36299312 9.32565496 6.59653813 12.55078125 11.3828125 C15.04396306 18.35205757 14.56984867 27.1248557 11.61328125 33.8203125 C8.23240731 39.76832567 2.96010964 43.2463697 -3.44921875 45.3828125 C-10.94504961 46.05130034 -16.3629448 45.97857038 -22.44921875 41.3828125 C-27.54696812 36.99637699 -31.04194259 32.838489 -31.8359375 26.1015625 C-32.05269839 19.10541799 -31.93734601 13.00932772 -27.44921875 7.3828125 C-19.64030678 -0.69787135 -11.1526243 -2.81039017 0 0 Z " fill="#FBF8F7" transform="translate(52.44921875,20.6171875)"/>
<path d="M0 0 C0.99 0 1.98 0 3 0 C3.17015625 0.54269531 3.3403125 1.08539063 3.515625 1.64453125 C5.38686813 7.38288424 5.38686813 7.38288424 10 11 C12.31347872 11.73260159 14.645752 12.411438 17 13 C17 13.33 17 13.66 17 14 C16.40574219 13.99097656 15.81148437 13.98195313 15.19921875 13.97265625 C7.42581046 14.25070973 1.99787263 17.13271678 -4 22 C-9.83805837 28.44056262 -10.51748515 33.97588628 -10.375 42.48046875 C-9.74660982 48.37817239 -7.63428925 52.5637325 -3.28515625 56.5859375 C4.13796058 62.20606534 11.20183453 62.69034727 20.26953125 61.76953125 C21.85153712 61.54721271 23.42711152 61.27962462 25 61 C25 61.66 25 62.32 25 63 C23.68 63 22.36 63 21 63 C21 63.66 21 64.32 21 65 C17.89422851 68.37583857 14.55068166 68.47751947 10.21875 68.7890625 C8.05689672 68.9945908 6.08940447 69.42066512 4 70 C4.495 68.02 4.495 68.02 5 66 C1.84667043 66 -0.99457031 67.10950231 -4 68 C-4 67.34 -4 66.68 -4 66 C-7.00988272 65.41947755 -9.92889402 64.94010254 -13 65 C-15.14254572 66.76666979 -15.14254572 66.76666979 -16 69 C-16.66 67.68 -17.32 66.36 -18 65 C-17.195625 64.54625 -16.39125 64.0925 -15.5625 63.625 C-12.91143428 62.25274335 -12.91143428 62.25274335 -12 60 C-11.49928128 55.40760498 -11.49928128 55.40760498 -13.19140625 51.3203125 C-15.55490278 49.59490899 -17.28663118 49.50086811 -20.1875 49.3125 C-21.08855469 49.24675781 -21.98960938 49.18101563 -22.91796875 49.11328125 C-23.60503906 49.07589844 -24.29210937 49.03851563 -25 49 C-25 49.66 -25 50.32 -25 51 C-25.66 51 -26.32 51 -27 51 C-27 49.68 -27 48.36 -27 47 C-24.525 46.505 -24.525 46.505 -22 46 C-22 44.02 -22 42.04 -22 40 C-25.465 40.495 -25.465 40.495 -29 41 C-29 39.35 -29 37.7 -29 36 C-28.34 36 -27.68 36 -27 36 C-27 36.66 -27 37.32 -27 38 C-25.02 37.34 -23.04 36.68 -21 36 C-21.33 34.35 -21.66 32.7 -22 31 C-23.65 30.67 -25.3 30.34 -27 30 C-27 28.68 -27 27.36 -27 26 C-26.34 26 -25.68 26 -25 26 C-25 26.66 -25 27.32 -25 28 C-23.02 27.67 -21.04 27.34 -19 27 C-19 25.35 -19 23.7 -19 22 C-20.65 21.67 -22.3 21.34 -24 21 C-23.34 19.35 -22.68 17.7 -22 16 C-21.608125 16.515625 -21.21625 17.03125 -20.8125 17.5625 C-20.214375 18.036875 -19.61625 18.51125 -19 19 C-16.34533951 18.76956136 -16.34533951 18.76956136 -14 18 C-14.27034634 15.56282742 -14.27034634 15.56282742 -15 13 C-15.99 12.34 -16.98 11.68 -18 11 C-16.68 10.01 -15.36 9.02 -14 8 C-13.67 9.32 -13.34 10.64 -13 12 C-11.35 12 -9.7 12 -8 12 C-7.4465236 9.92446352 -7 8.15634036 -7 6 C-7.99 6 -8.98 6 -10 6 C-10 5.34 -10 4.68 -10 4 C-8.68 3.67 -7.36 3.34 -6 3 C-5.34 4.65 -4.68 6.3 -4 8 C-2.35 7.67 -0.7 7.34 1 7 C1.15149298 3.37114676 1.15149298 3.37114676 0 0 Z " fill="#AF0B0E" transform="translate(32,4)"/>
<path d="M0 0 C5.32196238 2.36299312 9.32565496 6.59653813 12.55078125 11.3828125 C15.04396306 18.35205757 14.56984867 27.1248557 11.61328125 33.8203125 C8.23240731 39.76832567 2.96010964 43.2463697 -3.44921875 45.3828125 C-5.51066982 45.4518035 -7.57423276 45.46748977 -9.63671875 45.4453125 C-11.26673828 45.43177734 -11.26673828 45.43177734 -12.9296875 45.41796875 C-13.76113281 45.40636719 -14.59257813 45.39476562 -15.44921875 45.3828125 C-15.44921875 44.3928125 -15.44921875 43.4028125 -15.44921875 42.3828125 C-14.59199219 42.35703125 -13.73476563 42.33125 -12.8515625 42.3046875 C-4.16360503 41.87371779 1.39252066 41.05803879 7.42578125 34.4453125 C11.26685297 28.90965031 11.43242844 21.95764954 10.55078125 15.3828125 C9.16677218 12.57124163 7.6571082 10.75243032 5.55078125 8.3828125 C6.21078125 9.2490625 6.87078125 10.1153125 7.55078125 11.0078125 C10.83747776 16.59751114 9.86305149 23.12873354 9.55078125 29.3828125 C9.22078125 29.3828125 8.89078125 29.3828125 8.55078125 29.3828125 C8.46828125 28.1040625 8.38578125 26.8253125 8.30078125 25.5078125 C8.07765374 23.32549989 8.07765374 23.32549989 7.55078125 21.3828125 C5.74985827 19.89884596 5.74985827 19.89884596 3.55078125 19.3828125 C2.56078125 18.7228125 1.57078125 18.0628125 0.55078125 17.3828125 C0.21484375 15.359375 0.21484375 15.359375 0.17578125 13.0078125 C-0.11980067 9.60862037 -0.27821667 8.60190891 -2.44921875 5.8203125 C-7.12304534 3.58077059 -11.47111041 3.38022224 -16.41015625 5.04296875 C-21.21388072 7.46580795 -23.49224961 10.9896012 -26.44921875 15.3828125 C-27.10921875 15.3828125 -27.76921875 15.3828125 -28.44921875 15.3828125 C-28.70918706 22.5608265 -28.75868283 28.83613552 -24.69921875 35.0703125 C-22.18811823 37.65116582 -19.44665222 39.40723135 -16.44921875 41.3828125 C-16.44921875 42.0428125 -16.44921875 42.7028125 -16.44921875 43.3828125 C-21.72080898 42.78034505 -24.57297802 40.71654755 -27.875 36.609375 C-32.29077673 29.91729646 -32.42654108 23.19217112 -31.44921875 15.3828125 C-29.55497203 8.35181437 -24.63780921 4.04165688 -18.65234375 0.2421875 C-13.06832602 -1.93597544 -5.73940575 -1.44629363 0 0 Z " fill="#F7DDDA" transform="translate(52.44921875,20.6171875)"/>
<path d="M0 0 C2.68733334 0.96424487 4.90429542 2.03986661 7 4 C7.9375 7.75 7.9375 7.75 8 11 C8.04125 9.9275 8.0825 8.855 8.125 7.75 C9 4 9 4 11.75 1.5625 C16.62162162 -0.77962578 16.62162162 -0.77962578 20 0 C23.23772526 2.4462813 24.79097026 3.90840025 25.5625 7.9375 C24.8627824 11.74707359 23.38777961 13.98016108 21 17 C17.98131566 18.50934217 15.32702771 18.17510672 12 18 C11.01 17.34 10.02 16.68 9 16 C9 15.34 9 14.68 9 14 C7.96875 14.66 6.9375 15.32 5.875 16 C2.40583128 17.9514074 0.02849404 18.78818362 -4 18 C-7.02883418 15.95882914 -8.70071921 14.46257223 -9.44921875 10.8046875 C-9.63322668 6.95955635 -9.45671678 4.69353289 -7.3125 1.4375 C-4.43775364 -0.34950449 -3.33466258 -0.62040234 0 0 Z " fill="#CA474D" transform="translate(36,39)"/>
<path d="M0 0 C0.33 0 0.66 0 1 0 C1.495 4.95 1.495 4.95 2 10 C2.99 9.34 3.98 8.68 5 8 C5 9.98 5 11.96 5 14 C6.0725 13.814375 7.145 13.62875 8.25 13.4375 C11.40391546 13.0695432 13.09818492 12.95534657 16 14 C16 14.99 16 15.98 16 17 C15.2575 16.7525 15.2575 16.7525 14.5 16.5 C10.34749899 15.6694998 5.85518413 15.01443343 2 17.0625 C0.41095875 20.14126742 0.64226903 22.60155579 1 26 C2.76015131 29.1850357 3.49890916 29.83296972 7 31 C5.25 34.875 5.25 34.875 3 36 C2.34 34.35 1.68 32.7 1 31 C-0.32 31 -1.64 31 -3 31 C-3.16681109 33.91652174 -3.16681109 33.91652174 -3 37 C-2.34 37.66 -1.68 38.32 -1 39 C-2.32 39.66 -3.64 40.32 -5 41 C-5.66 39.35 -6.32 37.7 -7 36 C-9.475 36.495 -9.475 36.495 -12 37 C-12 38.65 -12 40.3 -12 42 C-11.34 42 -10.68 42 -10 42 C-10 42.66 -10 43.32 -10 44 C-11.32 44 -12.64 44 -14 44 C-14.66 42.02 -15.32 40.04 -16 38 C-18.475 38.495 -18.475 38.495 -21 39 C-21 41.31 -21 43.62 -21 46 C-22.32 46 -23.64 46 -25 46 C-24.67 43.69 -24.34 41.38 -24 39 C-25.65 38.67 -27.3 38.34 -29 38 C-29.66 39.98 -30.32 41.96 -31 44 C-32.32 44 -33.64 44 -35 44 C-35 43.34 -35 42.68 -35 42 C-34.34 42 -33.68 42 -33 42 C-33.33 40.02 -33.66 38.04 -34 36 C-35.65 36 -37.3 36 -39 36 C-39.495 38.475 -39.495 38.475 -40 41 C-41.32 40.67 -42.64 40.34 -44 40 C-44 39.34 -44 38.68 -44 38 C-43.34 38 -42.68 38 -42 38 C-41.505 35.03 -41.505 35.03 -41 32 C-40.01 32 -39.02 32 -38 32 C-38 32.66 -38 33.32 -38 34 C-33.45829004 32.09115308 -33.45829004 32.09115308 -29 30 C-28.67 31.32 -28.34 32.64 -28 34 C-25.84897634 34 -23.76637996 33.83131236 -21.625 33.625 C-20.46871094 33.52058594 -20.46871094 33.52058594 -19.2890625 33.4140625 C-16.8833029 32.97889097 -15.12199567 32.19180579 -13 31 C-13 30.34 -13 29.68 -13 29 C-11.68 29 -10.36 29 -9 29 C-9 28.34 -9 27.68 -9 27 C-9.928125 27.33 -10.85625 27.66 -11.8125 28 C-16.80904873 29.45989695 -21.8433358 29.16784802 -27 29 C-27 28.67 -27 28.34 -27 28 C-26.16597656 27.92523438 -25.33195312 27.85046875 -24.47265625 27.7734375 C-16.79069481 26.87588874 -10.5889971 25.62521091 -5 20 C-0.7793342 13.95704116 -0.26883037 7.19121239 0 0 Z " fill="#B80F13" transform="translate(66,38)"/>
<path d="M0 0 C0.33 0.99 0.66 1.98 1 3 C1.99 3.33 2.98 3.66 4 4 C3.35565163 12.12483025 -0.44468683 16.32521773 -6 22 C-10.6096446 25.87029081 -14.82856198 28.683516 -21 29 C-21 28.34 -21 27.68 -21 27 C-21.99 27 -22.98 27 -24 27 C-24.625 24.625 -24.625 24.625 -25 22 C-24.34 21.34 -23.68 20.68 -23 20 C-20.375 20.375 -20.375 20.375 -18 21 C-17.67 22.65 -17.34 24.3 -17 26 C-16.01 25.34 -15.02 24.68 -14 24 C-14.66 23.34 -15.32 22.68 -16 22 C-16.125 18.875 -16.125 18.875 -16 16 C-14.35 15.67 -12.7 15.34 -11 15 C-10.01 16.65 -9.02 18.3 -8 20 C-7.01 18.68 -6.02 17.36 -5 16 C-5.598125 15.9175 -6.19625 15.835 -6.8125 15.75 C-9.76224781 14.73865789 -10.54953762 13.75587853 -12 11 C-12.48505011 7.11959911 -12.56851618 4.9238388 -10.5 1.5625 C-6.86353539 -0.71029038 -4.24217465 -0.28281164 0 0 Z " fill="#FAF4F3" transform="translate(78,53)"/>
<path d="M0 0 C6.85892116 6.67842324 6.85892116 6.67842324 7.265625 10.48828125 C7.21988177 18.7563702 6.35460434 24.25962133 0.61328125 30.453125 C-3.92117868 34.80093646 -7.777898 35.16107702 -13.875 35.1875 C-15.91705977 35.13953215 -17.95901391 35.08176057 -20 35 C-20 35.66 -20 36.32 -20 37 C-20.99 36.67 -21.98 36.34 -23 36 C-22.34 36 -21.68 36 -21 36 C-23.09562422 33.82676007 -25.15004971 31.88654778 -27.5625 30.0625 C-32.85732452 25.58226386 -33.4457122 21.27016672 -34.08203125 14.62109375 C-33.99513906 11.84468134 -33.43096342 10.34810599 -32 8 C-31.67 10.64 -31.34 13.28 -31 16 C-30.67 16 -30.34 16 -30 16 C-29.9175 17.2375 -29.835 18.475 -29.75 19.75 C-29.3662623 22.71476799 -29.02950422 23.95629004 -27.3125 26.5 C-24.27705062 28.46894014 -22.5580909 28.51888826 -19 28 C-16.82967524 26.56009377 -16.82967524 26.56009377 -15 25 C-14.01 25 -13.02 25 -12 25 C-11.5875 25.495 -11.175 25.99 -10.75 26.5 C-8.94257403 28.32735657 -8.94257403 28.32735657 -5.5625 28.4375 C-1.96896407 28.30920536 -1.96896407 28.30920536 0.375 26.125 C2.02699185 24.10274318 2.02699185 24.10274318 3 22 C3.66 22 4.32 22 5 22 C4.96534049 11.15991742 4.96534049 11.15991742 0 2 C0 1.34 0 0.68 0 0 Z " fill="#E8A1A5" transform="translate(57,28)"/>
<path d="M0 0 C0.33 0.66 0.66 1.32 1 2 C2.92638012 2.75243555 2.92638012 2.75243555 5 3 C5.66 2.67 6.32 2.34 7 2 C9.7839183 3.39195915 9.97898997 5.15575779 11 8 C12.32 8 13.64 8 15 8 C15.33 7.34 15.66 6.68 16 6 C16.66 6 17.32 6 18 6 C18 7.32 18 8.64 18 10 C16.02 10.33 14.04 10.66 12 11 C12.33 12.98 12.66 14.96 13 17 C14.65 17.33 16.3 17.66 18 18 C18 17.34 18 16.68 18 16 C18.66 16 19.32 16 20 16 C20 17.98 20 19.96 20 22 C19.34 22 18.68 22 18 22 C18 21.34 18 20.68 18 20 C16.02 20.66 14.04 21.32 12 22 C12.33 23.98 12.66 25.96 13 28 C11.02 28 9.04 28 7 28 C6.67 26.35 6.34 24.7 6 23 C5.67 24.65 5.34 26.3 5 28 C2.37981388 25.37981388 2.74610426 24.08460122 2.625 20.4375 C2.29411707 15.24326227 1.24311683 11.43257558 -1.16015625 6.83984375 C-2 5 -2 5 -2 2 C-1.34 2 -0.68 2 0 2 C0 1.34 0 0.68 0 0 Z M0 3 C0 3.66 0 4.32 0 5 C0.66 4.67 1.32 4.34 2 4 C1.34 3.67 0.68 3.34 0 3 Z " fill="#B30D0F" transform="translate(64,24)"/>
<path d="M0 0 C2.72996031 1.11220605 4.19304157 2.2037661 6.25 4.375 C11.21629133 9.11555081 15.63785193 11.23650935 22.5625 11.3125 C26.76820611 11.15434671 30.85804523 10.73634751 35 10 C35 10.66 35 11.32 35 12 C33.68 12 32.36 12 31 12 C31 12.66 31 13.32 31 14 C27.89422851 17.37583857 24.55068166 17.47751947 20.21875 17.7890625 C18.05689672 17.9945908 16.08940447 18.42066512 14 19 C14.33 17.68 14.66 16.36 15 15 C11.84667043 15 9.00542969 16.10950231 6 17 C6 16.34 6 15.68 6 15 C2.99011728 14.41947755 0.07110598 13.94010254 -3 14 C-5.14254572 15.76666979 -5.14254572 15.76666979 -6 18 C-6.66 16.68 -7.32 15.36 -8 14 C-7.21625 13.566875 -6.4325 13.13375 -5.625 12.6875 C-2.78301625 11.10779753 -2.78301625 11.10779753 -1 8 C-0.54860541 5.9507906 -0.54860541 5.9507906 -0.375 3.8125 C-0.189375 1.9253125 -0.189375 1.9253125 0 0 Z " fill="#B00203" transform="translate(22,55)"/>
<path d="M0 0 C0.33 0 0.66 0 1 0 C1.33 3.3 1.66 6.6 2 10 C2.99 9.34 3.98 8.68 5 8 C5 9.98 5 11.96 5 14 C6.60875 13.7215625 6.60875 13.7215625 8.25 13.4375 C11.40391546 13.0695432 13.09818492 12.95534657 16 14 C16 14.99 16 15.98 16 17 C15.505 16.835 15.01 16.67 14.5 16.5 C10.34749899 15.6694998 5.85518413 15.01443343 2 17.0625 C0.41095875 20.14126742 0.64226903 22.60155579 1 26 C2.76015131 29.1850357 3.49890916 29.83296972 7 31 C5.25 34.875 5.25 34.875 3 36 C2.34 34.35 1.68 32.7 1 31 C-0.32 31 -1.64 31 -3 31 C-3.16681109 33.91652174 -3.16681109 33.91652174 -3 37 C-2.34 37.66 -1.68 38.32 -1 39 C-2.32 39.66 -3.64 40.32 -5 41 C-5.268125 40.21625 -5.53625 39.4325 -5.8125 38.625 C-6.84814432 35.71885077 -6.84814432 35.71885077 -10 34 C-9.01 34 -8.02 34 -7 34 C-7 32.68 -7 31.36 -7 30 C-7.66 29.67 -8.32 29.34 -9 29 C-8.34 28.38125 -7.68 27.7625 -7 27.125 C-4.7715451 25.24362573 -4.7715451 25.24362573 -5 23 C-6.65 23.66 -8.3 24.32 -10 25 C-9.60167969 24.57589844 -9.20335937 24.15179688 -8.79296875 23.71484375 C-2.16851122 16.38119855 -0.50957893 9.71714308 0 0 Z " fill="#B71112" transform="translate(66,38)"/>
<path d="M0 0 C0.66 0 1.32 0 2 0 C2 0.66 2 1.32 2 2 C6.455 1.505 6.455 1.505 11 1 C10.95875 1.94875 10.9175 2.8975 10.875 3.875 C10.65026182 7.10244856 10.65026182 7.10244856 13 9 C12.70630173 10.34262065 12.3721042 11.67696283 12 13 C12.33 13.66 12.66 14.32 13 15 C12.67 15.66 12.34 16.32 12 17 C10.68 17 9.36 17 8 17 C7.67 18.32 7.34 19.64 7 21 C8.65 21.33 10.3 21.66 12 22 C12.33 21.34 12.66 20.68 13 20 C13 20.99 13 21.98 13 23 C14.38944965 18.83165104 14.35152111 14.63142156 14.51757812 10.2734375 C14.60881644 8.51064445 14.79703561 6.75344496 15 5 C15.66 4.67 16.32 4.34 17 4 C16.97679688 5.08539063 16.95359375 6.17078125 16.9296875 7.2890625 C16.9109173 8.73436807 16.89271844 10.17968115 16.875 11.625 C16.85824219 12.33785156 16.84148438 13.05070312 16.82421875 13.78515625 C16.78315398 18.2612164 17.30913433 21.77949278 19 26 C18.67 26 18.34 26 18 26 C17.67 28.31 17.34 30.62 17 33 C16.67 33 16.34 33 16 33 C15.71125 31.88625 15.4225 30.7725 15.125 29.625 C14.30758671 25.99708908 14.30758671 25.99708908 12 24 C9.56747339 23.53837573 9.56747339 23.53837573 6.875 23.375 C5.96492187 23.30023438 5.05484375 23.22546875 4.1171875 23.1484375 C3.41851562 23.09945312 2.71984375 23.05046875 2 23 C2 23.66 2 24.32 2 25 C1.34 25 0.68 25 0 25 C0 23.68 0 22.36 0 21 C1.65 20.67 3.3 20.34 5 20 C5 18.02 5 16.04 5 14 C2.69 14.33 0.38 14.66 -2 15 C-2 13.35 -2 11.7 -2 10 C-1.34 10 -0.68 10 0 10 C0 10.66 0 11.32 0 12 C1.98 11.34 3.96 10.68 6 10 C5.67 8.35 5.34 6.7 5 5 C3.35 4.67 1.7 4.34 0 4 C0 2.68 0 1.36 0 0 Z " fill="#B01112" transform="translate(5,30)"/>
<path d="M0 0 C4.75553005 2.70639921 9.60371271 7.12105074 11.48046875 12.3671875 C12.74776602 20.50770878 12.64433262 28.065379 8.51171875 35.3359375 C4.95497353 39.86567739 0.22662945 42.69529018 -5.1875 44.5 C-7.24895107 44.568991 -9.31251401 44.58467727 -11.375 44.5625 C-13.00501953 44.54896484 -13.00501953 44.54896484 -14.66796875 44.53515625 C-15.49941406 44.52355469 -16.33085938 44.51195312 -17.1875 44.5 C-17.1875 43.51 -17.1875 42.52 -17.1875 41.5 C-16.33027344 41.47421875 -15.47304688 41.4484375 -14.58984375 41.421875 C-5.90188628 40.99090529 -0.34576059 40.17522629 5.6875 33.5625 C9.51781243 28.04234384 9.77647615 21.05503779 8.8125 14.5 C6.17576178 9.00755567 2.06056372 5.41559096 -3.1875 2.5 C-6.20240557 1.49503148 -8.22931692 1.39664697 -11.375 1.4375 C-12.27605469 1.44652344 -13.17710938 1.45554687 -14.10546875 1.46484375 C-15.13607422 1.48224609 -15.13607422 1.48224609 -16.1875 1.5 C-16.5175 0.84 -16.8475 0.18 -17.1875 -0.5 C-11.55502643 -2.37749119 -5.48141528 -2.43023685 0 0 Z " fill="#FBEDEA" transform="translate(54.1875,21.5)"/>
<path d="M0 0 C3.0390625 -0.29296875 3.0390625 -0.29296875 6.625 -0.1875 C7.81351563 -0.16042969 9.00203125 -0.13335937 10.2265625 -0.10546875 C11.14179687 -0.07066406 12.05703125 -0.03585938 13 0 C13.63060547 2.86197868 14.11209642 5.11218259 14 8 C12 11 12 11 9 13 C5.4375 13.625 5.4375 13.625 2 13 C-0.73726764 10.54347776 -1.85329265 9.02695147 -2.375 5.375 C-2 3 -2 3 0 0 Z " fill="#FBF7F6" transform="translate(38,2)"/>
<path d="M0 0 C2.625 0.375 2.625 0.375 5 1 C5.625 3.3125 5.625 3.3125 6 6 C5.01 7.485 5.01 7.485 4 9 C5.32 9 6.64 9 8 9 C7.79375 7.88625 7.5875 6.7725 7.375 5.625 C7.25125 4.42875 7.1275 3.2325 7 2 C7.66 1.34 8.32 0.68 9 0 C13.55555556 0.55555556 13.55555556 0.55555556 15 2 C15.04063832 3.66617115 15.042721 5.33388095 15 7 C16.32 7 17.64 7 19 7 C19.33 6.34 19.66 5.68 20 5 C20.33 5.99 20.66 6.98 21 8 C10.36131221 11.42786988 -0.57724284 11.1200546 -11 7 C-8 5 -8 5 -6 5 C-6 5.66 -6 6.32 -6 7 C-4.68 7 -3.36 7 -2 7 C-2.04125 6.21625 -2.0825 5.4325 -2.125 4.625 C-2 2 -2 2 0 0 Z " fill="#EFCBC9" transform="translate(37,75)"/>
<path d="M0 0 C0.99 0 1.98 0 3 0 C3.25523438 0.81404297 3.25523438 0.81404297 3.515625 1.64453125 C5.38686813 7.38288424 5.38686813 7.38288424 10 11 C12.31347872 11.73260159 14.645752 12.411438 17 13 C17 13.33 17 13.66 17 14 C16.34773438 14.04898437 15.69546875 14.09796875 15.0234375 14.1484375 C10.04259854 14.57452697 5.7054135 15.22239934 1 17 C-1.32560078 17.6962593 -3.66218467 18.34541171 -6 19 C-6.66 18.34 -7.32 17.68 -8 17 C-10.10820797 17.3185177 -10.10820797 17.3185177 -12 18 C-12 17.01 -12 16.02 -12 15 C-10.02 15 -8.04 15 -6 15 C-5.67 13.02 -5.34 11.04 -5 9 C-3.02 8.34 -1.04 7.68 1 7 C1.15149298 3.37114676 1.15149298 3.37114676 0 0 Z " fill="#AE0506" transform="translate(32,4)"/>
<path d="M0 0 C-0.66 0.33 -1.32 0.66 -2 1 C-2 1.66 -2 2.32 -2 3 C-3.32 2.34 -4.64 1.68 -6 1 C-6.33 2.32 -6.66 3.64 -7 5 C-7.495 2.03 -7.495 2.03 -8 -1 C-12.29 -1 -16.58 -1 -21 -1 C-21.66 0.98 -22.32 2.96 -23 5 C-23.33 3.68 -23.66 2.36 -24 1 C-24.99 1.495 -24.99 1.495 -26 2 C-25.67 2.33 -25.34 2.66 -25 3 C-24.8125 5.4375 -24.8125 5.4375 -25 8 C-25.66 8.66 -26.32 9.32 -27 10 C-29.625 9.625 -29.625 9.625 -32 9 C-32.33 7.35 -32.66 5.7 -33 4 C-34.32 4.33 -35.64 4.66 -37 5 C-37 5.66 -37 6.32 -37 7 C-36.01 7.33 -35.02 7.66 -34 8 C-36.64 7.67 -39.28 7.34 -42 7 C-32.06871344 -3.75889378 -13.25154508 -5.37399793 0 0 Z " fill="#F9EBE9" transform="translate(59,3)"/>
<path d="M0 0 C1.9375 1.125 1.9375 1.125 3 3 C3.54624158 6.66762206 3.47898298 8.3258758 1.3125 11.375 C-1 13 -1 13 -3.5 13.5 C-6.87013879 12.82597224 -8.01677007 11.7912125 -10 9 C-10.45319325 5.82764724 -10.52990283 3.93512264 -8.9375 1.125 C-5.8930714 -0.64273274 -3.4368988 -0.36823916 0 0 Z " fill="#F9EEED" transform="translate(38,42)"/>
<path d="M0 0 C2.4375 0.1875 2.4375 0.1875 5 1 C6.3125 3.0625 6.3125 3.0625 7 5 C7.66 4.34 8.32 3.68 9 3 C9.99 3.33 10.98 3.66 12 4 C-0.32876712 14 -0.32876712 14 -6 14 C-6 13.34 -6 12.68 -6 12 C-6.99 12 -7.98 12 -9 12 C-9.625 9.625 -9.625 9.625 -10 7 C-9.34 6.34 -8.68 5.68 -8 5 C-5.375 5.375 -5.375 5.375 -3 6 C-2.67 7.65 -2.34 9.3 -2 11 C-1.01 10.34 -0.02 9.68 1 9 C0.34 8.34 -0.32 7.68 -1 7 C-1.1875 3.9375 -1.1875 3.9375 -1 1 C-0.67 0.67 -0.34 0.34 0 0 Z " fill="#F3DBD5" transform="translate(63,68)"/>
<path d="M0 0 C1.875 1.125 1.875 1.125 3 3 C3.54624158 6.66762206 3.47898298 8.3258758 1.3125 11.375 C-1 13 -1 13 -3.5625 13.4375 C-6 13 -6 13 -7.8125 12 C-9.80825156 8.63873422 -9.3677757 5.86164485 -9 2 C-5.53076119 -0.31282587 -4.07794425 -0.42478586 0 0 Z " fill="#FCF3F2" transform="translate(56,42)"/>
<path d="M0 0 C1.9375 1.125 1.9375 1.125 3 3 C3.38976435 6.11811483 3.50422245 8.11019567 1.9375 10.875 C-1.14071911 12.66235303 -3.52906068 12.43386742 -7 12 C-9.42061048 9.89172636 -9.9127007 8.59654522 -10.375 5.4375 C-10 3 -10 3 -8.9375 1.1875 C-5.90624457 -0.67036623 -3.46577141 -0.37133265 0 0 Z " fill="#FCF4F2" transform="translate(47,26)"/>
<path d="M0 0 C2.375 0.3125 2.375 0.3125 3.375 1.3125 C3.08769945 3.65194736 2.75563221 5.9864143 2.375 8.3125 C1.715 8.3125 1.055 8.3125 0.375 8.3125 C0.375 8.9725 0.375 9.6325 0.375 10.3125 C1.695 10.6425 3.015 10.9725 4.375 11.3125 C4.354375 10.508125 4.33375 9.70375 4.3125 8.875 C4.375 6.3125 4.375 6.3125 5.375 5.3125 C7.875 5.1875 7.875 5.1875 10.375 5.3125 C11.375 6.3125 11.375 6.3125 11.4375 9.375 C11.416875 10.344375 11.39625 11.31375 11.375 12.3125 C4.78762252 13.98928699 4.78762252 13.98928699 0.9453125 12.1484375 C-2.56544186 9.81177148 -5.70991779 7.36551985 -8.625 4.3125 C-8.295 3.3225 -7.965 2.3325 -7.625 1.3125 C-6.965 2.3025 -6.305 3.2925 -5.625 4.3125 C-5.233125 3.6525 -4.84125 2.9925 -4.4375 2.3125 C-2.625 0.3125 -2.625 0.3125 0 0 Z " fill="#F6E3E1" transform="translate(21.625,67.6875)"/>
<path d="M0 0 C0.99 0.33 1.98 0.66 3 1 C2.67 1.33 2.34 1.66 2 2 C1.95936168 3.66617115 1.957279 5.33388095 2 7 C4.475 7.495 4.475 7.495 7 8 C7.66 6.35 8.32 4.7 9 3 C10.32 3.66 11.64 4.32 13 5 C12.01 5.33 11.02 5.66 10 6 C10 8.31 10 10.62 10 13 C9.34 13 8.68 13 8 13 C8 12.01 8 11.02 8 10 C6.35 10 4.7 10 3 10 C2.67 12.64 2.34 15.28 2 18 C-3.61 17.34 -9.22 16.68 -15 16 C-14.67 15.34 -14.34 14.68 -14 14 C-11.93359375 13.5859375 -11.93359375 13.5859375 -9.4375 13.375 C-8.19806641 13.26285156 -8.19806641 13.26285156 -6.93359375 13.1484375 C-5.97646484 13.07496094 -5.97646484 13.07496094 -5 13 C-7.97 12.505 -7.97 12.505 -11 12 C-11 11.67 -11 11.34 -11 11 C-9.906875 10.773125 -8.81375 10.54625 -7.6875 10.3125 C-3.92910401 9.34290903 -3.92910401 9.34290903 -2.125 6.625 C-1.17052877 4.39790045 -0.44019778 2.37706802 0 0 Z " fill="#BA1E20" transform="translate(53,4)"/>
<path d="M0 0 C0.46019531 0.49113281 0.92039062 0.98226562 1.39453125 1.48828125 C2.91224621 3.21335869 2.91224621 3.21335869 5.26171875 3.29296875 C6.06222656 3.25816406 6.86273438 3.22335938 7.6875 3.1875 C8.89986328 3.14689453 8.89986328 3.14689453 10.13671875 3.10546875 C11.05904297 3.05326172 11.05904297 3.05326172 12 3 C7.91730977 7.37431096 4.85520959 9.29072867 -1.1875 9.5 C-7.46289438 9.43252264 -11.27458499 6.9203443 -16 3 C-14.01984674 3 -12.03863174 3.06136393 -10.0625 3.1875 C-5.73504688 2.92255389 -4.25207967 0 0 0 Z " fill="#FBF5F3" transform="translate(45,53)"/>
<path d="M0 0 C5.99077522 1.53252389 9.00664277 4.30086078 12.6328125 9.2109375 C14.37416637 12.76329939 14.29783456 15.37723388 14.1875 19.3125 C14.16042969 20.56675781 14.13335937 21.82101563 14.10546875 23.11328125 C14.07066406 24.06589844 14.03585938 25.01851562 14 26 C13.67 26 13.34 26 13 26 C12.9175 24.72125 12.835 23.4425 12.75 22.125 C12.52687249 19.94268739 12.52687249 19.94268739 12 18 C10.19907702 16.51603346 10.19907702 16.51603346 8 16 C7.01 15.34 6.02 14.68 5 14 C4.62890625 12.01171875 4.62890625 12.01171875 4.5625 9.6875 C4.24042223 5.34645185 3.14267777 3.14267777 0 0 Z " fill="#FBFBFB" transform="translate(48,24)"/>
<path d="M0 0 C2.31 0.33 4.62 0.66 7 1 C6.76228882 1.85609863 6.76228882 1.85609863 6.51977539 2.72949219 C6.00638657 4.97210188 5.79834104 7.03317915 5.68359375 9.328125 C5.64169922 10.12734375 5.59980469 10.9265625 5.55664062 11.75 C5.49766602 12.9875 5.49766602 12.9875 5.4375 14.25 C5.39431641 15.09046875 5.35113281 15.9309375 5.30664062 16.796875 C5.20091457 18.86440671 5.09998705 20.93218281 5 23 C2.03 22.67 -0.94 22.34 -4 22 C-3.34 20.35 -2.68 18.7 -2 17 C-0.68 17 0.64 17 2 17 C1.835 15.88625 1.67 14.7725 1.5 13.625 C1 10 1 10 1 8 C0.67 8 0.34 8 0 8 C0 5.36 0 2.72 0 0 Z " fill="#AC0202" transform="translate(15,30)"/>
<path d="M0 0 C1.32 0.66 2.64 1.32 4 2 C3.34 2 2.68 2 2 2 C2 3.32 2 4.64 2 6 C2.78375 5.95875 3.5675 5.9175 4.375 5.875 C7 6 7 6 9 8 C8.625 10.625 8.625 10.625 8 13 C6.02 13.33 4.04 13.66 2 14 C2 13.34 2 12.68 2 12 C1.34 12 0.68 12 0 12 C0 13.65 0 15.3 0 17 C0.66 17.33 1.32 17.66 2 18 C1.01 18 0.02 18 -1 18 C-1.33 18.66 -1.66 19.32 -2 20 C-2.21133202 12.95559921 -2.07965362 6.75887425 0 0 Z " fill="#F0D3D1" transform="translate(3,28)"/>
<path d="M0 0 C2.31 0 4.62 0 7 0 C7.33 2.97 7.66 5.94 8 9 C7.01 8.67 6.02 8.34 5 8 C5 8.66 5 9.32 5 10 C5.66 10 6.32 10 7 10 C7.99 11.98 8.98 13.96 10 16 C8.02 16 6.04 16 4 16 C3.67 14.35 3.34 12.7 3 11 C2.67 12.65 2.34 14.3 2 16 C0 14 0 14 -0.1953125 10.7421875 C-0.17210938 9.46601562 -0.14890625 8.18984375 -0.125 6.875 C-0.10695313 5.59367187 -0.08890625 4.31234375 -0.0703125 2.9921875 C-0.04710938 2.00476562 -0.02390625 1.01734375 0 0 Z " fill="#B20203" transform="translate(67,36)"/>
<path d="M0 0 C2.45916606 1.18859693 4.67830756 2.5432518 7 4 C7.77641328 13.04090125 7.77641328 13.04090125 4.875 16.625 C1.47252854 18.25226896 -0.2814015 18.69723722 -4 18 C-7.02883418 15.95882914 -8.70071921 14.46257223 -9.44921875 10.8046875 C-9.63322668 6.95955635 -9.45671678 4.69353289 -7.3125 1.4375 C-4.43775364 -0.34950449 -3.33466258 -0.62040234 0 0 Z M-6.9375 4.125 C-8.52990283 6.93512264 -8.45319325 8.82764724 -8 12 C-6.01677007 14.7912125 -4.87013879 15.82597224 -1.5 16.5 C1.87013879 15.82597224 3.01677007 14.7912125 5 12 C5.45319325 8.82764724 5.52990283 6.93512264 3.9375 4.125 C0.43554208 2.09160508 -3.43554208 2.09160508 -6.9375 4.125 Z " fill="#BE2B2F" transform="translate(36,39)"/>
<path d="M0 0 C2.875 1.375 2.875 1.375 5 4 C5.42647695 7.44420628 5.229816 10.50679683 5 14 C2.03 15.32 -0.94 16.64 -4 18 C-4.66 17.01 -5.32 16.02 -6 15 C-4.576875 14.566875 -4.576875 14.566875 -3.125 14.125 C0.05211578 13.23174891 0.05211578 13.23174891 2 11 C2.33333333 8 2.33333333 8 2 5 C0.05667668 2.62005632 0.05667668 2.62005632 -3.5 2.75 C-7.05667668 2.62005632 -7.05667668 2.62005632 -9 5 C-9.02308597 7.22128555 -9.02308597 7.22128555 -8.625 9.625 C-8.51414063 10.44226562 -8.40328125 11.25953125 -8.2890625 12.1015625 C-8.19367187 12.72804688 -8.09828125 13.35453125 -8 14 C-9.32 13.67 -10.64 13.34 -12 13 C-12.29795219 10.07013677 -12.50687865 7.85647239 -12 5 C-8.36438899 0.84501599 -5.54577572 -1.06195705 0 0 Z " fill="#BE3536" transform="translate(47,24)"/>
<path d="M0 0 C1.86754566 3.73509132 0.94896004 8.31910264 0.83984375 12.421875 C0.99986529 15.99699039 1.70304132 18.68385467 3 22 C2.67 22 2.34 22 2 22 C1.67 24.31 1.34 26.62 1 29 C0.67 29 0.34 29 0 29 C-0.28875 27.88625 -0.5775 26.7725 -0.875 25.625 C-1.69241329 21.99708908 -1.69241329 21.99708908 -4 20 C-6.43252661 19.53837573 -6.43252661 19.53837573 -9.125 19.375 C-10.03507813 19.30023438 -10.94515625 19.22546875 -11.8828125 19.1484375 C-12.58148438 19.09945312 -13.28015625 19.05046875 -14 19 C-14 19.66 -14 20.32 -14 21 C-14.66 21 -15.32 21 -16 21 C-16 19.68 -16 18.36 -16 17 C-14.35 16.67 -12.7 16.34 -11 16 C-11 14.02 -11 12.04 -11 10 C-10.34 10.33 -9.68 10.66 -9 11 C-9 12.98 -9 14.96 -9 17 C-7.35 17.33 -5.7 17.66 -4 18 C-3.67 17.34 -3.34 16.68 -3 16 C-3 16.99 -3 17.98 -3 19 C-1.60928794 14.82786381 -1.61327927 10.6321943 -1.39453125 6.2734375 C-1.10159485 1.10159485 -1.10159485 1.10159485 0 0 Z " fill="#B7262B" transform="translate(21,34)"/>
<path d="M0 0 C0 0.66 0 1.32 0 2 C-1.32 2 -2.64 2 -4 2 C-4 2.66 -4 3.32 -4 4 C-7.10577149 7.37583857 -10.44931834 7.47751947 -14.78125 7.7890625 C-16.94310328 7.9945908 -18.91059553 8.42066512 -21 9 C-20.67 7.02 -20.34 5.04 -20 3 C-17.41747107 2.49550598 -14.83411297 1.99625699 -12.25 1.5 C-11.52039062 1.35691406 -10.79078125 1.21382813 -10.0390625 1.06640625 C-6.60656468 0.41111121 -3.50830509 0 0 0 Z " fill="#AF0101" transform="translate(57,65)"/>
<path d="M0 0 C0.66 1.32 1.32 2.64 2 4 C1.67 4.33 1.34 4.66 1 5 C1.99 5.66 2.98 6.32 4 7 C3.360625 7.226875 2.72125 7.45375 2.0625 7.6875 C-0.27193661 8.85250896 -0.27193661 8.85250896 -0.75 11.625 C-0.8325 12.40875 -0.915 13.1925 -1 14 C-2.32 14 -3.64 14 -5 14 C-5 13.34 -5 12.68 -5 12 C-4.34 12 -3.68 12 -3 12 C-3.33 10.02 -3.66 8.04 -4 6 C-5.65 6 -7.3 6 -9 6 C-9.33 7.65 -9.66 9.3 -10 11 C-11.32 10.67 -12.64 10.34 -14 10 C-14 9.34 -14 8.68 -14 8 C-13.34 8 -12.68 8 -12 8 C-11.67 6.02 -11.34 4.04 -11 2 C-10.01 2 -9.02 2 -8 2 C-8 2.66 -8 3.32 -8 4 C-3.70111387 2.48134786 -3.70111387 2.48134786 0 0 Z " fill="#BD1F22" transform="translate(36,68)"/>
<path d="M0 0 C0.33 0 0.66 0 1 0 C1 2.97 1 5.94 1 9 C1.66 9.33 2.32 9.66 3 10 C1.88625 10.474375 0.7725 10.94875 -0.375 11.4375 C-2.26710994 12.25306463 -4.15712709 13.07856355 -6 14 C-6.68729254 16.11846285 -6.68729254 16.11846285 -7.125 18.5625 C-7.29257812 19.38878906 -7.46015625 20.21507813 -7.6328125 21.06640625 C-7.75398438 21.70449219 -7.87515625 22.34257813 -8 23 C-8.33 23 -8.66 23 -9 23 C-9 20.03 -9 17.06 -9 14 C-10.32 13.67 -11.64 13.34 -13 13 C-15.36828288 12.07097847 -17.67235373 11.02953585 -20 10 C-16.6853333 7.97092833 -14.5684021 7.87257867 -10.75 8.375 C-9.85796875 8.48585938 -8.9659375 8.59671875 -8.046875 8.7109375 C-7.37140625 8.80632813 -6.6959375 8.90171875 -6 9 C-7.98 9.99 -7.98 9.99 -10 11 C-6.38970831 11 -3.44193324 10.03907418 0 9 C0 6.03 0 3.06 0 0 Z " fill="#EEA4A3" transform="translate(52,29)"/>
<path d="M0 0 C2.625 0.375 2.625 0.375 5 1 C6.30892449 5.402746 6.30892449 5.402746 5.0625 7.8125 C1.83362609 9.67154862 -1.40945771 9.41247284 -5 9 C-8.5 8 -8.5 8 -11 7 C-8 5 -8 5 -6 5 C-6 5.66 -6 6.32 -6 7 C-4.68 7 -3.36 7 -2 7 C-2.04125 6.21625 -2.0825 5.4325 -2.125 4.625 C-2 2 -2 2 0 0 Z " fill="#F9F7F6" transform="translate(37,75)"/>
<path d="M0 0 C0.33 0 0.66 0 1 0 C1.08636719 0.92941406 1.17273438 1.85882813 1.26171875 2.81640625 C2.11272772 10.30372367 2.72244181 15.4825528 8 21 C9.9469586 22.4430399 11.9451011 23.70971465 14 25 C14 25.66 14 26.32 14 27 C9.53181809 26.48935064 7.17871766 25.17871766 4 22 C-0.54291893 15.90128691 -1.9536528 10.54748071 -1 3 C-0.67 2.01 -0.34 1.02 0 0 Z " fill="#F9EBE5" transform="translate(22,37)"/>
<path d="M0 0 C0.8765625 -0.00773438 1.753125 -0.01546875 2.65625 -0.0234375 C7.50301655 -0.00883881 11.45196119 0.3649576 16 2.25 C15.01 2.745 15.01 2.745 14 3.25 C14 3.91 14 4.57 14 5.25 C12.68 4.59 11.36 3.93 10 3.25 C9.67 4.57 9.34 5.89 9 7.25 C8.67 5.27 8.34 3.29 8 1.25 C3.71 1.25 -0.58 1.25 -5 1.25 C-5.66 3.23 -6.32 5.21 -7 7.25 C-7.33 5.93 -7.66 4.61 -8 3.25 C-9.98 4.24 -9.98 4.24 -12 5.25 C-13.32 4.26 -14.64 3.27 -16 2.25 C-10.59956152 0.01166037 -5.74266107 -0.05067054 0 0 Z " fill="#F2CAC8" transform="translate(43,0.75)"/>
<path d="M0 0 C0.66 0.99 1.32 1.98 2 3 C1.57421875 4.90234375 1.57421875 4.90234375 0.6875 6.9375 C-1.68015252 12.49773375 -2.13192597 17.20460052 -2.0625 23.25 C-2.05798828 23.99507812 -2.05347656 24.74015625 -2.04882812 25.5078125 C-2.03709246 27.3385764 -2.0191585 29.16929873 -2 31 C-2.66 31 -3.32 31 -4 31 C-4 22.09 -4 13.18 -4 4 C-3.34 4 -2.68 4 -2 4 C-1.34 2.68 -0.68 1.36 0 0 Z " fill="#7E0D0F" transform="translate(4,21)"/>
<path d="M0 0 C1.65 0.33 3.3 0.66 5 1 C4.34 2.32 3.68 3.64 3 5 C3.78375 4.814375 4.5675 4.62875 5.375 4.4375 C8 4 8 4 10 5 C10 5.66 10 6.32 10 7 C4.555 8.485 4.555 8.485 -1 10 C-1.66 9.34 -2.32 8.68 -3 8 C-5.10820797 8.3185177 -5.10820797 8.3185177 -7 9 C-7 8.01 -7 7.02 -7 6 C-5.02 6 -3.04 6 -1 6 C-0.67 4.02 -0.34 2.04 0 0 Z " fill="#AC0202" transform="translate(27,13)"/>
<path d="M0 0 C1.53125 1.0703125 1.53125 1.0703125 2.53125 3.0703125 C1.809375 2.7609375 1.0875 2.4515625 0.34375 2.1328125 C-5.51678141 -0.08116603 -12.33739424 -1.29583303 -18.4296875 0.71875 C-23.19973838 3.15585023 -25.6334045 6.60249534 -28.46875 11.0703125 C-28.79875 10.0803125 -29.12875 9.0903125 -29.46875 8.0703125 C-22.64169981 -3.06855886 -11.26874476 -6.03682755 0 0 Z " fill="#E9A6AA" transform="translate(54.46875,24.9296875)"/>
<path d="M0 0 C0.33 0 0.66 0 1 0 C1.33 3.3 1.66 6.6 2 10 C2.99 9.34 3.98 8.68 5 8 C5 9.98 5 11.96 5 14 C6.0725 13.814375 7.145 13.62875 8.25 13.4375 C11.40391546 13.0695432 13.09818492 12.95534657 16 14 C16 14.99 16 15.98 16 17 C15.48953125 16.83628906 14.9790625 16.67257813 14.453125 16.50390625 C9.11070665 15.40649866 3.4169129 15.9498434 -2 16 C-1.34 10.72 -0.68 5.44 0 0 Z " fill="#B60406" transform="translate(66,38)"/>
<path d="M0 0 C6.85892116 6.67842324 6.85892116 6.67842324 7.265625 10.48828125 C7.22673866 17.51698672 7.0067422 23.57602929 2 29 C1.34 29 0.68 29 0 29 C1.875 24.25 1.875 24.25 3 22 C3.66 22 4.32 22 5 22 C4.96534049 11.15991742 4.96534049 11.15991742 0 2 C0 1.34 0 0.68 0 0 Z " fill="#EDAFAF" transform="translate(57,28)"/>
<path d="M0 0 C1.97387813 4.76052962 2.0070238 7.96488101 1 13 C-1.31 12.67 -3.62 12.34 -6 12 C-6.33 12.99 -6.66 13.98 -7 15 C-7.268125 14.21625 -7.53625 13.4325 -7.8125 12.625 C-8.84814432 9.71885077 -8.84814432 9.71885077 -12 8 C-10.68 7.01 -9.36 6.02 -8 5 C-7.67 6.32 -7.34 7.64 -7 9 C-5.35 9 -3.7 9 -2 9 C-1.4465236 6.92446352 -1 5.15634036 -1 3 C-1.99 3 -2.98 3 -4 3 C-4 2.34 -4 1.68 -4 1 C-2 0 -2 0 0 0 Z " fill="#B4181A" transform="translate(26,7)"/>
<path d="M0 0 C2.625 0.375 2.625 0.375 5 1 C6.125 4.75 6.125 4.75 5 7 C5.66 7.33 6.32 7.66 7 8 C5.35 8.33 3.7 8.66 2 9 C2 8.34 2 7.68 2 7 C1.01 7 0.02 7 -1 7 C-1.625 4.625 -1.625 4.625 -2 2 C-1.34 1.34 -0.68 0.68 0 0 Z " fill="#FAEDEA" transform="translate(55,73)"/>
<path d="M0 0 C1.65 0.33 3.3 0.66 5 1 C4.67 3.31 4.34 5.62 4 8 C1.625 8.625 1.625 8.625 -1 9 C-3 7 -3 7 -3.125 4.375 C-3.08375 3.59125 -3.0425 2.8075 -3 2 C-2.01 2 -1.02 2 0 2 C0 1.34 0 0.68 0 0 Z " fill="#F9ECEA" transform="translate(57,4)"/>
<path d="M0 0 C4.05671683 -0.07431978 8.11316846 -0.12868133 12.17041016 -0.16479492 C13.54971218 -0.17985422 14.92896653 -0.20030613 16.30810547 -0.22631836 C18.29373403 -0.26282415 20.27971618 -0.27814853 22.265625 -0.29296875 C23.45961914 -0.3086792 24.65361328 -0.32438965 25.88378906 -0.34057617 C29.24671522 0.02696394 30.64747999 0.60638 33 3 C33 3.66 33 4.32 33 5 C30.3692711 4.53575372 28.01358872 4.00550429 25.53125 3 C20.57984741 1.59783289 15.74855683 1.53366499 10.625 1.375 C9.60277344 1.33632813 8.58054687 1.29765625 7.52734375 1.2578125 C5.01840403 1.16402036 2.50946236 1.07832121 0 1 C0 0.67 0 0.34 0 0 Z " fill="#821B1C" transform="translate(31,0)"/>
<path d="M0 0 C0.33 0.99 0.66 1.98 1 3 C-0.63412443 4.70840281 -1.86906094 5.93453047 -4 7 C-4 6.34 -4 5.68 -4 5 C-4.928125 5.33 -5.85625 5.66 -6.8125 6 C-11.80904873 7.45989695 -16.8433358 7.16784802 -22 7 C-22 6.67 -22 6.34 -22 6 C-20.74896484 5.85304688 -20.74896484 5.85304688 -19.47265625 5.703125 C-12.35984326 4.75800895 -6.34865123 3.37938541 0 0 Z M-8 7 C-5.03 7.495 -5.03 7.495 -2 8 C-2 8.33 -2 8.66 -2 9 C-3.98 9 -5.96 9 -8 9 C-8 8.34 -8 7.68 -8 7 Z " fill="#BB161B" transform="translate(61,60)"/>
<path d="M0 0 C2.5 0.125 2.5 0.125 3.5 1.125 C3.54080783 3.12458364 3.54254356 5.12545254 3.5 7.125 C1.19 7.455 -1.12 7.785 -3.5 8.125 C-3.54241723 5.79205225 -3.54092937 3.45797433 -3.5 1.125 C-2.5 0.125 -2.5 0.125 0 0 Z " fill="#F7F1EE" transform="translate(29.5,72.875)"/>
<path d="M0 0 C1.65 0 3.3 0 5 0 C5 0.99 5 1.98 5 3 C5.66 3 6.32 3 7 3 C7 3.66 7 4.32 7 5 C4.4345406 7.5654594 2.52313332 7.54046087 -1 8 C-1.93065133 5.39417629 -2.14917407 4.35801776 -1.0625 1.75 C-0.711875 1.1725 -0.36125 0.595 0 0 Z " fill="#B10202" transform="translate(56,14)"/>
<path d="M0 0 C0.33 0 0.66 0 1 0 C1.33 1.65 1.66 3.3 2 5 C3.65 5.33 5.3 5.66 7 6 C7 5.34 7 4.68 7 4 C7.66 4 8.32 4 9 4 C9 5.98 9 7.96 9 10 C8.34 10 7.68 10 7 10 C7 9.34 7 8.68 7 8 C2.17557816 9.26946514 2.17557816 9.26946514 -1 13 C-1 12.01 -1 11.02 -1 10 C-1.66 10 -2.32 10 -3 10 C-3 9.34 -3 8.68 -3 8 C-2.34 7.67 -1.68 7.34 -1 7 C-0.59270772 4.67843403 -0.25561323 2.3431213 0 0 Z " fill="#B91D20" transform="translate(75,36)"/>
<path d="M0 0 C2.64 0.33 5.28 0.66 8 1 C8.625 2.875 8.625 2.875 9 5 C7 7 7 7 4.375 7.125 C3.59125 7.08375 2.8075 7.0425 2 7 C1.34 4.69 0.68 2.38 0 0 Z " fill="#FAF1EF" transform="translate(17,10)"/>
<path d="M0 0 C2.3125 1.5 2.3125 1.5 4 3 C3.67 4.32 3.34 5.64 3 7 C2.62875 6.505 2.2575 6.01 1.875 5.5 C0.00363206 3.73485983 0.00363206 3.73485983 -3 3.625 C-5.95865509 3.74288633 -5.95865509 3.74288633 -7.75 5.3125 C-8.88171799 6.84031928 -9.94533748 8.41800622 -11 10 C-11.375 7.25 -11.375 7.25 -11 4 C-7.5109394 0.91664412 -4.69630557 -0.86510892 0 0 Z " fill="#BB232A" transform="translate(56,39)"/>
<path d="M0 0 C0.66 0 1.32 0 2 0 C4.37590142 3.70416126 4.20500286 6.92984573 4.125 11.25 C4.10695313 12.51328125 4.08890625 13.7765625 4.0703125 15.078125 C4.04710937 16.04234375 4.02390625 17.0065625 4 18 C3.67 18 3.34 18 3 18 C2.87625 16.081875 2.87625 16.081875 2.75 14.125 C2.5371288 11.94173127 2.5371288 11.94173127 2 10 C0.09831644 8.54780623 0.09831644 8.54780623 -2 8 C-2.33 7.34 -2.66 6.68 -3 6 C-1.68 6.33 -0.36 6.66 1 7 C0.67 4.69 0.34 2.38 0 0 Z " fill="#F9ECE9" transform="translate(58,32)"/>
<path d="M0 0 C0.66 0.66 1.32 1.32 2 2 C1.979375 2.969375 1.95875 3.93875 1.9375 4.9375 C1.73439108 7.93852515 1.73439108 7.93852515 3.1875 9.875 C5.671194 11.41660317 7.12066864 11.42136557 10 11 C12.28484306 9.60042803 12.28484306 9.60042803 14 8 C13.625 10.4375 13.625 10.4375 13 13 C10.11138291 14.44430855 8.20352299 14.37688506 5 14 C2.125 12.0625 2.125 12.0625 0 9 C-0.40276286 5.95123812 -0.29949079 3.05480604 0 0 Z " fill="#BC3637" transform="translate(27,43)"/>
<path d="M0 0 C-0.5775 0.268125 -1.155 0.53625 -1.75 0.8125 C-2.4925 1.204375 -3.235 1.59625 -4 2 C-5.1446875 2.5259375 -5.1446875 2.5259375 -6.3125 3.0625 C-8.23499179 4.84773697 -8.23499179 4.84773697 -8.02734375 7.1953125 C-7.77216767 9.4883032 -7.43684447 11.73505641 -7 14 C-8.32 13.67 -9.64 13.34 -11 13 C-11.71105791 6.00793057 -11.71105791 6.00793057 -9.83984375 3.35546875 C-6.66083675 0.53420167 -4.21335054 -0.61961037 0 0 Z " fill="#B62227" transform="translate(46,24)"/>
<path d="M0 0 C-0.33 1.65 -0.66 3.3 -1 5 C-2.65 5.33 -4.3 5.66 -6 6 C-6.33 4.35 -6.66 2.7 -7 1 C-4.53721199 -0.231394 -2.7204945 -0.07159196 0 0 Z " fill="#FAF3F0" transform="translate(19,18)"/>
<path d="M0 0 C0.99 0.33 1.98 0.66 3 1 C1.6875 2.5 1.6875 2.5 0 4 C-0.99 4 -1.98 4 -3 4 C-3.33 5.32 -3.66 6.64 -4 8 C-7.93673644 6.68775452 -10.22719294 5.08089673 -13 2 C-12.39671875 2.10699219 -11.7934375 2.21398438 -11.171875 2.32421875 C-6.16971594 3.25114219 -6.16971594 3.25114219 -1.625 1.5 C-0.820625 0.7575 -0.820625 0.7575 0 0 Z " fill="#F6E0DD" transform="translate(42,53)"/>
<path d="M0 0 C0.66 0.33 1.32 0.66 2 1 C1.360625 1.515625 0.72125 2.03125 0.0625 2.5625 C-2.55791681 5.65935623 -2.69389817 8.02067623 -3 12 C-3.33 11.01 -3.66 10.02 -4 9 C-4.99 9 -5.98 9 -7 9 C-7 8.01 -7 7.02 -7 6 C-6.34 6 -5.68 6 -5 6 C-5.33 5.01 -5.66 4.02 -6 3 C-4.03533587 1.93224776 -2.03144641 0.93446535 0 0 Z " fill="#F7DAD8" transform="translate(38,24)"/>
<path d="M0 0 C1.67542976 0.28604898 3.34385343 0.61781233 5 1 C5 2.98 5 4.96 5 7 C4.34 6.34 3.68 5.68 3 5 C2.34 5.66 1.68 6.32 1 7 C0.34 6.67 -0.32 6.34 -1 6 C-1.042721 4.33388095 -1.04063832 2.66617115 -1 1 C-0.67 0.67 -0.34 0.34 0 0 Z " fill="#F7EEEE" transform="translate(63,68)"/>
<path d="M0 0 C1.12588014 0.95729916 2.2506715 1.91587895 3.375 2.875 C4.00148438 3.40867188 4.62796875 3.94234375 5.2734375 4.4921875 C6.55836651 5.61432007 7.79371975 6.79371975 9 8 C6.69 8.33 4.38 8.66 2 9 C2.33 8.01 2.66 7.02 3 6 C2.01 6 1.02 6 0 6 C0 4.02 0 2.04 0 0 Z M0 9 C0.99 9.495 0.99 9.495 2 10 C1.01 10.495 1.01 10.495 0 11 C0 10.34 0 9.68 0 9 Z " fill="#B41518" transform="translate(24,56)"/>
<path d="M0 0 C0.33 0.66 0.66 1.32 1 2 C3.52733235 2.65555119 3.52733235 2.65555119 6 3 C5.0409375 4.051875 5.0409375 4.051875 4.0625 5.125 C1.83613898 8.22841233 1.34919057 10.24620139 1 14 C0.67 14 0.34 14 0 14 C0 9.38 0 4.76 0 0 Z " fill="#F8E7E6" transform="translate(25,36)"/>
<path d="M0 0 C0.66 0.33 1.32 0.66 2 1 C2 2.98 2 4.96 2 7 C1.67 5.68 1.34 4.36 1 3 C-0.32 3.33 -1.64 3.66 -3 4 C-3 4.66 -3 5.32 -3 6 C-2.01 6.33 -1.02 6.66 0 7 C-2.64 6.67 -5.28 6.34 -8 6 C-5.54080489 3.3651481 -3.42227589 1.25483449 0 0 Z " fill="#ECCCC5" transform="translate(25,4)"/>
<path d="M0 0 C3.63 0 7.26 0 11 0 C11.33 0.99 11.66 1.98 12 3 C8.04 3 4.08 3 0 3 C0 2.01 0 1.02 0 0 Z " fill="#F5DCD8" transform="translate(37,63)"/>
<path d="M0 0 C1.65 0 3.3 0 5 0 C5 1.98 5 3.96 5 6 C3.35 6 1.7 6 0 6 C-1.125 2.25 -1.125 2.25 0 0 Z " fill="#F9F1F1" transform="translate(77,36)"/>
<path d="M0 0 C0.66 0.33 1.32 0.66 2 1 C1.01 2.485 1.01 2.485 0 4 C0 5.32 0 6.64 0 8 C-2.375 8.1875 -2.375 8.1875 -5 8 C-5.66 7.01 -6.32 6.02 -7 5 C-4.69 3.35 -2.38 1.7 0 0 Z " fill="#811416" transform="translate(70,75)"/>
<path d="M0 0 C0.99 0.495 0.99 0.495 2 1 C2.625 3.5625 2.625 3.5625 3 6 C3.99 6.33 4.98 6.66 6 7 C5.01 8.485 5.01 8.485 4 10 C2.68 10 1.36 10 0 10 C0 6.7 0 3.4 0 0 Z " fill="#AF0202" transform="translate(22,55)"/>
<path d="M0 0 C0.66 0.33 1.32 0.66 2 1 C1.938125 1.94875 1.87625 2.8975 1.8125 3.875 C1.874375 4.90625 1.93625 5.9375 2 7 C2.99 7.66 3.98 8.32 5 9 C2.36 9 -0.28 9 -3 9 C-3 9.66 -3 10.32 -3 11 C-3.66 11 -4.32 11 -5 11 C-5 9.68 -5 8.36 -5 7 C-3.35 6.67 -1.7 6.34 0 6 C0 4.02 0 2.04 0 0 Z " fill="#CA6165" transform="translate(10,44)"/>
<path d="M0 0 C3.40312738 1.05875074 6.01353231 2.00902154 9 4 C7.79618552 6.49361571 6.54571278 8.68143083 5 11 C4.731875 9.9275 4.46375 8.855 4.1875 7.75 C3.13772173 4.43491072 2.25387672 2.56122354 0 0 Z " fill="#F9EFED" transform="translate(48,24)"/>
<path d="M0 0 C0.99 0.33 1.98 0.66 3 1 C2.42415568 3.38564077 1.77772405 5.66682784 1 8 C-0.32 8 -1.64 8 -3 8 C-3 6.35 -3 4.7 -3 3 C-1.68 3 -0.36 3 1 3 C0.67 2.01 0.34 1.02 0 0 Z " fill="#F8F4F1" transform="translate(73,14)"/>
<path d="M0 0 C1.1171875 1.734375 1.1171875 1.734375 2 4 C1.3203125 6.140625 1.3203125 6.140625 0.125 8.25 C-0.26429687 8.95640625 -0.65359375 9.6628125 -1.0546875 10.390625 C-1.36664063 10.92171875 -1.67859375 11.4528125 -2 12 C-2.99 12 -3.98 12 -5 12 C-3.79618552 9.50638429 -2.54571278 7.31856917 -1 5 C-0.61500109 3.34450469 -0.27206865 1.6777567 0 0 Z " fill="#F7E7E3" transform="translate(63,47)"/>
<path d="M0 0 C1.4540625 0.0309375 1.4540625 0.0309375 2.9375 0.0625 C2.298125 0.289375 1.65875 0.51625 1 0.75 C-1.30126958 1.90126445 -1.30126958 1.90126445 -1.8125 4.5 C-2.11104998 7.13102628 -2.11104998 7.13102628 -2.0625 10.0625 C-3.3825 10.0625 -4.7025 10.0625 -6.0625 10.0625 C-5.75451674 8.58238629 -5.440982 7.10342675 -5.125 5.625 C-4.95097656 4.80128906 -4.77695312 3.97757812 -4.59765625 3.12890625 C-3.74861631 -0.14950344 -3.55198744 0.07248954 0 0 Z " fill="#BF1E1E" transform="translate(47.0625,73.9375)"/>
<path d="M0 0 C0.33 0 0.66 0 1 0 C1.08086147 1.79093191 1.13912702 3.58289628 1.1875 5.375 C1.22230469 6.37273438 1.25710937 7.37046875 1.29296875 8.3984375 C1.19628906 9.25695313 1.09960938 10.11546875 1 11 C0.01 11.66 -0.98 12.32 -2 13 C-3.18414294 9.44757118 -2.69535532 8.30169438 -1.5625 4.8125 C-1.27503906 3.91144531 -0.98757812 3.01039062 -0.69140625 2.08203125 C-0.46324219 1.39496094 -0.23507813 0.70789062 0 0 Z " fill="#7C1317" transform="translate(85,50)"/>
<path d="M0 0 C0.99 0 1.98 0 3 0 C3.66 2.64 4.32 5.28 5 8 C2.64561267 9.42944945 1.51967567 10.08661261 -1.25 9.625 C-1.8275 9.41875 -2.405 9.2125 -3 9 C-1.68 8.34 -0.36 7.68 1 7 C1.15149298 3.37114676 1.15149298 3.37114676 0 0 Z " fill="#B41D1F" transform="translate(32,4)"/>
<path d="M0 0 C0 2.31 0 4.62 0 7 C-0.33 5.68 -0.66 4.36 -1 3 C-2.98 3.99 -2.98 3.99 -5 5 C-6.32 4.01 -7.64 3.02 -9 2 C-3.375 0 -3.375 0 0 0 Z " fill="#E4AAA8" transform="translate(36,1)"/>
<path d="M0 0 C1.32 0.33 2.64 0.66 4 1 C3.67 2.98 3.34 4.96 3 7 C3.66 7.33 4.32 7.66 5 8 C3.68 8 2.36 8 1 8 C0.67 5.36 0.34 2.72 0 0 Z " fill="#F8DFDC" transform="translate(2,48)"/>
<path d="M0 0 C0.33 0 0.66 0 1 0 C1.05395478 1.62463842 1.09277195 3.24978541 1.125 4.875 C1.14820312 5.77992187 1.17140625 6.68484375 1.1953125 7.6171875 C1 10 1 10 -1 12 C-1 10.68 -1 9.36 -1 8 C-1.66 7.67 -2.32 7.34 -3 7 C-2.67 5.68 -2.34 4.36 -2 3 C-1.34 3 -0.68 3 0 3 C0 2.01 0 1.02 0 0 Z " fill="#FCF3ED" transform="translate(84,43)"/>
<path d="M0 0 C1.98 0.495 1.98 0.495 4 1 C3.67 2.65 3.34 4.3 3 6 C1.68 6 0.36 6 -1 6 C-0.67 4.02 -0.34 2.04 0 0 Z " fill="#F5E4E1" transform="translate(8,35)"/>
<path d="M0 0 C0.33 0.66 0.66 1.32 1 2 C1.66 2 2.32 2 3 2 C3 2.66 3 3.32 3 4 C2.21625 4.268125 1.4325 4.53625 0.625 4.8125 C-2.28114923 5.84814432 -2.28114923 5.84814432 -4 9 C-4.66 7.68 -5.32 6.36 -6 5 C-5.195625 4.54625 -4.39125 4.0925 -3.5625 3.625 C-0.91143428 2.25274335 -0.91143428 2.25274335 0 0 Z " fill="#BC2B2F" transform="translate(20,64)"/>
<path d="M0 0 C1.32 0.66 2.64 1.32 4 2 C4 2.66 4 3.32 4 4 C2.68 4.33 1.36 4.66 0 5 C-0.33 6.65 -0.66 8.3 -1 10 C-1.33 10 -1.66 10 -2 10 C-2 8.35 -2 6.7 -2 5 C-3.32 4.67 -4.64 4.34 -6 4 C-4.35 3.67 -2.7 3.34 -1 3 C-0.67 2.01 -0.34 1.02 0 0 Z " fill="#CD5359" transform="translate(70,13)"/>
<path d="M0 0 C0.33 0 0.66 0 1 0 C1.33 4.62 1.66 9.24 2 14 C0.02 14.99 0.02 14.99 -2 16 C-1.34 10.72 -0.68 5.44 0 0 Z " fill="#CD5254" transform="translate(66,38)"/>
<path d="M0 0 C0.66 0 1.32 0 2 0 C2 0.66 2 1.32 2 2 C3.98 1.67 5.96 1.34 8 1 C7.67 1.99 7.34 2.98 7 4 C4.69 4.33 2.38 4.66 0 5 C0 3.35 0 1.7 0 0 Z " fill="#C04447" transform="translate(3,40)"/>
<path d="M0 0 C1.49080078 0.16628906 1.49080078 0.16628906 3.01171875 0.3359375 C3.77097656 0.43132813 4.53023437 0.52671875 5.3125 0.625 C5.3125 0.955 5.3125 1.285 5.3125 1.625 C-2.72251094 3.90071116 -2.72251094 3.90071116 -6.75 2.75 C-7.389375 2.37875 -8.02875 2.0075 -8.6875 1.625 C-5.1388865 -0.74074234 -4.1110475 -0.48365265 0 0 Z " fill="#D8787A" transform="translate(40.6875,37.375)"/>
<path d="M0 0 C4.875 1.75 4.875 1.75 6 4 C5.67 4.66 5.34 5.32 5 6 C3.68 5.67 2.36 5.34 1 5 C1.66 4.67 2.32 4.34 3 4 C2.34 3.67 1.68 3.34 1 3 C0.34 3.99 -0.32 4.98 -1 6 C-1.042721 4.33388095 -1.04063832 2.66617115 -1 1 C-0.67 0.67 -0.34 0.34 0 0 Z " fill="#EFB6B2" transform="translate(62,5)"/>
<path d="M0 0 C1.98 0.99 3.96 1.98 6 3 C4.25 6.875 4.25 6.875 2 8 C0.74335022 5.09399739 0 3.20395416 0 0 Z " fill="#C94A4F" transform="translate(67,66)"/>
<path d="M0 0 C1.98 0 3.96 0 6 0 C6 0.99 6 1.98 6 3 C4.02 3.33 2.04 3.66 0 4 C0 2.68 0 1.36 0 0 Z " fill="#AE0303" transform="translate(53,69)"/>
<path d="M0 0 C0.33 0 0.66 0 1 0 C1 1.65 1 3.3 1 5 C1.66 5 2.32 5 3 5 C3 5.99 3 6.98 3 8 C1.68 8 0.36 8 -1 8 C-1.04241723 5.66705225 -1.04092937 3.33297433 -1 1 C-0.67 0.67 -0.34 0.34 0 0 Z " fill="#F7F7F2" transform="translate(3,31)"/>
<path d="M0 0 C0.4125 0.45375 0.825 0.9075 1.25 1.375 C3.06408095 3.05950374 4.75285627 3.99265971 7 5 C3.67465243 6.10844919 1.37817425 5.84454356 -2 5 C-1.34 3.35 -0.68 1.7 0 0 Z " fill="#C24A50" transform="translate(10,20)"/>
<path d="M0 0 C1.65 0.33 3.3 0.66 5 1 C5.33 2.65 5.66 4.3 6 6 C4.35 4.68 2.7 3.36 1 2 C0.01 2.66 -0.98 3.32 -2 4 C-1.34 2.68 -0.68 1.36 0 0 Z " fill="#F7C4C3" transform="translate(37,75)"/>
<path d="M0 0 C1.65 0 3.3 0 5 0 C5.625 2.8125 5.625 2.8125 6 6 C5.01 7.485 5.01 7.485 4 9 C3.67 8.01 3.34 7.02 3 6 C2.34 5.67 1.68 5.34 1 5 C1.33 4.34 1.66 3.68 2 3 C2.66 3.33 3.32 3.66 4 4 C4 3.01 4 2.02 4 1 C2.68 0.67 1.36 0.34 0 0 Z " fill="#EFC5C2" transform="translate(78,51)"/>
<path d="M0 0 C0.66 0 1.32 0 2 0 C2 1.98 2 3.96 2 6 C1.34 6 0.68 6 0 6 C0 5.34 0 4.68 0 4 C-1.32 4 -2.64 4 -4 4 C-4 3.34 -4 2.68 -4 2 C-2.68 2 -1.36 2 0 2 C0 1.34 0 0.68 0 0 Z " fill="#C24248" transform="translate(82,40)"/>
<path d="M0 0 C1.2065625 0.0309375 1.2065625 0.0309375 2.4375 0.0625 C2.7675 0.7225 3.0975 1.3825 3.4375 2.0625 C0.4375 3.0625 -2.5625 4.0625 -5.5625 5.0625 C-3.15007962 0.07683121 -3.15007962 0.07683121 0 0 Z " fill="#AE1416" transform="translate(33.5625,38.9375)"/>
<path d="M0 0 C1.98 0.66 3.96 1.32 6 2 C4 4 4 4 1.375 4.125 C0.59125 4.08375 -0.1925 4.0425 -1 4 C-0.67 2.68 -0.34 1.36 0 0 Z " fill="#FBF8F3" transform="translate(5,25)"/>
<path d="M0 0 C0.33 0 0.66 0 1 0 C1.12375 0.78375 1.2475 1.5675 1.375 2.375 C1.79117993 5.14057822 1.79117993 5.14057822 4 7 C2.02 7.99 2.02 7.99 0 9 C-0.66 7.02 -1.32 5.04 -2 3 C-1.34 3 -0.68 3 0 3 C0 2.01 0 1.02 0 0 Z " fill="#C94749" transform="translate(61,70)"/>
<path d="M0 0 C5.75 0.75 5.75 0.75 8 3 C6.63875 2.9690625 6.63875 2.9690625 5.25 2.9375 C2.57327412 2.9889755 0.53011948 3.2215017 -2 4 C-1.34 2.68 -0.68 1.36 0 0 Z " fill="#AC080B" transform="translate(31,64)"/>
<path d="M0 0 C2 3 2 3 1.625 5.6875 C1.41875 6.450625 1.2125 7.21375 1 8 C-0.32 7.67 -1.64 7.34 -3 7 C-3 6.34 -3 5.68 -3 5 C-2.34 5 -1.68 5 -1 5 C-0.67 3.35 -0.34 1.7 0 0 Z " fill="#CB464D" transform="translate(25,71)"/>
<path d="M0 0 C0 0.99 0 1.98 0 3 C-3.63 2.34 -7.26 1.68 -11 1 C-11 0.67 -11 0.34 -11 0 C-6.98195309 -0.84098656 -3.98196457 -1.05404945 0 0 Z " fill="#C8404B" transform="translate(82,52)"/>
<path d="M0 0 C0.226875 0.639375 0.45375 1.27875 0.6875 1.9375 C1.85250896 4.27193661 1.85250896 4.27193661 4.625 4.75 C5.40875 4.8325 6.1925 4.915 7 5 C7 5.33 7 5.66 7 6 C1.58461538 6.36923077 1.58461538 6.36923077 -1.375 4.5 C-1.91125 4.005 -2.4475 3.51 -3 3 C-2.01 2.01 -1.02 1.02 0 0 Z " fill="#C23D45" transform="translate(17,12)"/>
<path d="M0 0 C0 0.66 0 1.32 0 2 C1.65 1.67 3.3 1.34 5 1 C5 1.66 5 2.32 5 3 C1.18510326 4.46726798 -1.29011622 3.43336419 -5 2 C-2 0 -2 0 0 0 Z " fill="#E6B6B3" transform="translate(31,80)"/>
<path d="M0 0 C1.67542976 0.28604898 3.34385343 0.61781233 5 1 C5 1.66 5 2.32 5 3 C5.66 3.33 6.32 3.66 7 4 C4.125 4.1875 4.125 4.1875 1 4 C0.34 3.01 -0.32 2.02 -1 1 C-0.67 0.67 -0.34 0.34 0 0 Z " fill="#FBF3F2" transform="translate(46,80)"/>
<path d="M0 0 C2.64 0.33 5.28 0.66 8 1 C8 1.66 8 2.32 8 3 C5.69 3 3.38 3 1 3 C0.67 2.01 0.34 1.02 0 0 Z " fill="#BE2C2F" transform="translate(47,54)"/>
<path d="M0 0 C0.33 1.32 0.66 2.64 1 4 C-0.98 4.66 -2.96 5.32 -5 6 C-5.33 5.34 -5.66 4.68 -6 4 C-2.25 0 -2.25 0 0 0 Z " fill="#BF3139" transform="translate(78,21)"/>
<path d="M0 0 C0.66 1.98 1.32 3.96 2 6 C1.34 6.66 0.68 7.32 0 8 C-0.33 6.35 -0.66 4.7 -1 3 C-1.99 3 -2.98 3 -4 3 C-4 2.34 -4 1.68 -4 1 C-2 0 -2 0 0 0 Z " fill="#BA2F35" transform="translate(26,7)"/>
</svg>
